<svg width="694" height="164" viewBox="0 0 694 164" fill="none" xmlns="http://www.w3.org/2000/svg">
<ellipse cx="56.9221" cy="70.5386" rx="56" ry="24.5" transform="rotate(-45 56.9221 70.5386)" fill="url(#paint0_radial_459_12917)"/>
<ellipse cx="56.9221" cy="71.4607" rx="56" ry="24.5" transform="rotate(45 56.9221 71.4607)" fill="url(#paint1_radial_459_12917)"/>
<g filter="url(#filter0_d_459_12917)">
<path d="M167.122 113.84C161.282 113.84 156.002 112.84 151.282 110.84C146.642 108.84 142.962 105.96 140.242 102.2C137.522 98.44 136.122 94 136.042 88.88H154.042C154.282 92.32 155.482 95.04 157.642 97.04C159.882 99.04 162.922 100.04 166.762 100.04C170.682 100.04 173.762 99.12 176.002 97.28C178.242 95.36 179.362 92.88 179.362 89.84C179.362 87.36 178.602 85.32 177.082 83.72C175.562 82.12 173.642 80.88 171.322 80C169.082 79.04 165.962 78 161.962 76.88C156.522 75.28 152.082 73.72 148.642 72.2C145.282 70.6 142.362 68.24 139.882 65.12C137.482 61.92 136.282 57.68 136.282 52.4C136.282 47.44 137.522 43.12 140.002 39.44C142.482 35.76 145.962 32.96 150.442 31.04C154.922 29.04 160.042 28.04 165.802 28.04C174.442 28.04 181.442 30.16 186.802 34.4C192.242 38.56 195.242 44.4 195.802 51.92H177.322C177.162 49.04 175.922 46.68 173.602 44.84C171.362 42.92 168.362 41.96 164.602 41.96C161.322 41.96 158.682 42.8 156.682 44.48C154.762 46.16 153.802 48.6 153.802 51.8C153.802 54.04 154.522 55.92 155.962 57.44C157.482 58.88 159.322 60.08 161.482 61.04C163.722 61.92 166.842 62.96 170.842 64.16C176.282 65.76 180.722 67.36 184.162 68.96C187.602 70.56 190.562 72.96 193.042 76.16C195.522 79.36 196.762 83.56 196.762 88.76C196.762 93.24 195.602 97.4 193.282 101.24C190.962 105.08 187.562 108.16 183.082 110.48C178.602 112.72 173.282 113.84 167.122 113.84ZM274.927 46.52L233.767 144.44H215.887L230.287 111.32L203.647 46.52H222.487L239.647 92.96L257.047 46.52H274.927ZM320.824 45.56C328.744 45.56 335.144 48.08 340.024 53.12C344.904 58.08 347.344 65.04 347.344 74V113H330.544V76.28C330.544 71 329.224 66.96 326.584 64.16C323.944 61.28 320.344 59.84 315.784 59.84C311.144 59.84 307.464 61.28 304.744 64.16C302.104 66.96 300.784 71 300.784 76.28V113H283.984V46.52H300.784V54.8C303.024 51.92 305.864 49.68 309.304 48.08C312.824 46.4 316.664 45.56 320.824 45.56ZM359 79.76C359 72.88 360.4 66.88 363.2 61.76C366 56.56 369.88 52.56 374.84 49.76C379.8 46.88 385.48 45.44 391.88 45.44C400.12 45.44 406.92 47.52 412.28 51.68C417.72 55.76 421.36 61.52 423.2 68.96H405.08C404.12 66.08 402.48 63.84 400.16 62.24C397.92 60.56 395.12 59.72 391.76 59.72C386.96 59.72 383.16 61.48 380.36 65C377.56 68.44 376.16 73.36 376.16 79.76C376.16 86.08 377.56 91 380.36 94.52C383.16 97.96 386.96 99.68 391.76 99.68C398.56 99.68 403 96.64 405.08 90.56H423.2C421.36 97.76 417.72 103.48 412.28 107.72C406.84 111.96 400.04 114.08 391.88 114.08C385.48 114.08 379.8 112.68 374.84 109.88C369.88 107 366 103 363.2 97.88C360.4 92.68 359 86.64 359 79.76ZM465.987 60.32H454.347V113H437.307V60.32H429.747V46.52H437.307V43.16C437.307 35 439.627 29 444.267 25.16C448.907 21.32 455.907 19.52 465.267 19.76V33.92C461.187 33.84 458.347 34.52 456.747 35.96C455.147 37.4 454.347 40 454.347 43.76V46.52H465.987V60.32ZM493.674 24.2V113H476.874V24.2H493.674ZM539.793 114.08C533.393 114.08 527.633 112.68 522.513 109.88C517.393 107 513.353 102.96 510.393 97.76C507.513 92.56 506.073 86.56 506.073 79.76C506.073 72.96 507.553 66.96 510.513 61.76C513.553 56.56 517.673 52.56 522.873 49.76C528.073 46.88 533.873 45.44 540.273 45.44C546.673 45.44 552.473 46.88 557.673 49.76C562.873 52.56 566.953 56.56 569.913 61.76C572.953 66.96 574.473 72.96 574.473 79.76C574.473 86.56 572.913 92.56 569.793 97.76C566.753 102.96 562.593 107 557.313 109.88C552.113 112.68 546.273 114.08 539.793 114.08ZM539.793 99.44C542.833 99.44 545.673 98.72 548.313 97.28C551.033 95.76 553.193 93.52 554.793 90.56C556.393 87.6 557.193 84 557.193 79.76C557.193 73.44 555.513 68.6 552.153 65.24C548.873 61.8 544.833 60.08 540.033 60.08C535.233 60.08 531.193 61.8 527.913 65.24C524.713 68.6 523.113 73.44 523.113 79.76C523.113 86.08 524.673 90.96 527.793 94.4C530.993 97.76 534.993 99.44 539.793 99.44ZM678.956 46.52L659.516 113H641.396L629.276 66.56L617.156 113H598.916L579.356 46.52H596.396L608.156 97.16L620.876 46.52H638.636L651.116 97.04L662.876 46.52H678.956Z" fill="url(#paint2_radial_459_12917)"/>
</g>
<defs>
<filter id="filter0_d_459_12917" x="121.042" y="8.3999" width="572.914" height="155.04" filterUnits="userSpaceOnUse" color-interpolation-filters="sRGB">
<feFlood flood-opacity="0" result="BackgroundImageFix"/>
<feColorMatrix in="SourceAlpha" type="matrix" values="0 0 0 0 0 0 0 0 0 0 0 0 0 0 0 0 0 0 127 0" result="hardAlpha"/>
<feOffset dy="4"/>
<feGaussianBlur stdDeviation="7.5"/>
<feComposite in2="hardAlpha" operator="out"/>
<feColorMatrix type="matrix" values="0 0 0 0 0 0 0 0 0 0 0 0 0 0 0 0 0 0 0.05 0"/>
<feBlend mode="normal" in2="BackgroundImageFix" result="effect1_dropShadow_459_12917"/>
<feBlend mode="normal" in="SourceGraphic" in2="effect1_dropShadow_459_12917" result="shape"/>
</filter>
<radialGradient id="paint0_radial_459_12917" cx="0" cy="0" r="1" gradientUnits="userSpaceOnUse" gradientTransform="translate(56.167 70.5386) rotate(-90) scale(78.5035 58.6853)">
<stop stop-color="#111111"/>
<stop offset="1" stop-color="#333333"/>
</radialGradient>
<radialGradient id="paint1_radial_459_12917" cx="0" cy="0" r="1" gradientUnits="userSpaceOnUse" gradientTransform="translate(56.167 71.4607) rotate(-90) scale(78.5035 58.6853)">
<stop stop-color="#111111"/>
<stop offset="1" stop-color="#333333"/>
</radialGradient>
<radialGradient id="paint2_radial_459_12917" cx="0" cy="0" r="1" gradientUnits="userSpaceOnUse" gradientTransform="translate(401.136 71) rotate(-90) scale(227.5 288.187)">
<stop stop-color="#111111"/>
<stop offset="1" stop-color="#333333"/>
</radialGradient>
</defs>
</svg>
